<svg id="Capa_1" enable-background="new 0 0 512 512" height="512" viewBox="0 0 512 512" width="512" xmlns="http://www.w3.org/2000/svg"><g><g id="XMLID_6663_"><path id="XMLID_2097_" d="m37.331 490.996c-4.048 0-8.095-1.545-11.181-4.634-6.172-6.176-6.168-16.185.008-22.355l443.054-442.703c6.176-6.17 16.185-6.167 22.355.009 6.172 6.176 6.168 16.185-.008 22.355l-443.055 442.703c-3.086 3.083-7.13 4.625-11.173 4.625z" fill="#46f8ff"/><path id="XMLID_2096_" d="m473.921 420.926c-3.566 0-7.151-1.2-10.106-3.66l-372.519-310.138c-6.709-5.586-7.62-15.553-2.034-22.262 5.585-6.709 15.553-7.619 22.262-2.035l372.52 310.139c6.709 5.586 7.62 15.553 2.034 22.262-3.126 3.755-7.626 5.694-12.157 5.694z" fill="#46f8ff"/><path id="XMLID_2095_" d="m167.589 256.429h-105.569c-8.73 0-15.807-7.077-15.807-15.807s7.077-15.807 15.807-15.807h105.568c8.73 0 15.807 7.077 15.807 15.807s-7.076 15.807-15.806 15.807z" fill="#bdfdff"/><g id="XMLID_4242_"><path id="XMLID_2094_" d="m111.525 82.831c-6.709-5.585-16.677-4.675-22.262 2.035-5.586 6.709-4.675 16.676 2.034 22.262l178.848 148.899v-41.138z" fill="#bdfdff"/></g><g id="XMLID_4241_"><path id="XMLID_2093_" d="m26.157 464.007c-6.176 6.171-6.18 16.179-.008 22.355 3.086 3.089 7.134 4.634 11.181 4.634 4.043 0 8.087-1.542 11.173-4.625l221.64-221.464v-44.693z" fill="#bdfdff"/></g><path id="XMLID_2092_" d="m270.144 450.484c8.73 0 15.807-7.077 15.807-15.807v-100.945c0-8.73-7.077-15.807-15.807-15.807s-15.807 7.077-15.807 15.807v100.944c0 8.731 7.077 15.808 15.807 15.808z" fill="#bdfdff"/><path id="XMLID_2091_" d="m270.144 173.807c8.73 0 15.807-7.077 15.807-15.807v-104.722c0-8.73-7.077-15.807-15.807-15.807s-15.807 7.077-15.807 15.807v104.722c0 8.73 7.077 15.807 15.807 15.807z" fill="#bdfdff"/><g id="XMLID_4240_"><g><g id="XMLID_162_"><path d="m285.952 333.732v100.944c0 8.73-7.077 15.807-15.807 15.807v-132.558c8.729 0 15.807 7.077 15.807 15.807z" fill="#46f8ff"/></g><g id="XMLID_161_"><path d="m285.952 53.278v104.722c0 8.73-7.077 15.807-15.807 15.807v-136.336c8.729 0 15.807 7.077 15.807 15.807z" fill="#46f8ff"/></g></g></g><g id="XMLID_2051_"><g id="XMLID_2086_"><path id="XMLID_2087_" d="m480.385 64.085c-17.432 0-31.615-14.175-31.615-31.598 0-17.424 14.183-31.599 31.615-31.599 17.432-.001 31.615 14.175 31.615 31.598s-14.183 31.599-31.615 31.599z" fill="#eb1d83"/></g><g id="XMLID_2083_"><path id="XMLID_2084_" d="m31.615 511.113c-17.432 0-31.615-14.176-31.615-31.599 0-17.424 14.183-31.599 31.615-31.599s31.615 14.175 31.615 31.599c0 17.423-14.183 31.599-31.615 31.599z" fill="#f05ca5"/></g><g id="XMLID_2080_"><path id="XMLID_2081_" d="m238.529 446.459c0-17.423 14.183-31.598 31.615-31.598s31.615 14.175 31.615 31.598c0 17.424-14.183 31.599-31.615 31.599s-31.615-14.176-31.615-31.599z" fill="#f05ca5"/></g><g id="XMLID_2077_"><path id="XMLID_2078_" d="m50.229 272.22c-17.432 0-31.615-14.175-31.615-31.598 0-17.424 14.183-31.599 31.615-31.599s31.615 14.175 31.615 31.599c0 17.423-14.183 31.598-31.615 31.598z" fill="#f05ca5"/></g><g id="XMLID_2072_"><path id="XMLID_2076_" d="m372.661 240.622h83.234" fill="#fff"/><path id="XMLID_2073_" d="m455.895 256.43c-.001 0 0 0 0 0l-83.234-.001c-8.73 0-15.807-7.077-15.807-15.807s7.078-15.807 15.807-15.807l83.234.001c8.73 0 15.807 7.077 15.807 15.807 0 8.729-7.078 15.807-15.807 15.807z" fill="#46f8ff"/></g><g id="XMLID_2069_"><path id="XMLID_2070_" d="m467.687 272.22c-17.432 0-31.615-14.175-31.615-31.599 0-17.423 14.183-31.598 31.615-31.598s31.615 14.175 31.615 31.599c0 17.423-14.183 31.598-31.615 31.598z" fill="#eb1d83"/></g><g id="XMLID_2066_"><path id="XMLID_2067_" d="m238.529 41.496c0-17.424 14.183-31.599 31.615-31.599s31.615 14.175 31.615 31.598c0 17.424-14.183 31.599-31.615 31.599s-31.615-14.175-31.615-31.598z" fill="#f05ca5"/></g><g id="XMLID_2055_"><path id="XMLID_2060_" d="m94.474 117.568c-17.432 0-31.615-14.175-31.615-31.598s14.183-31.598 31.615-31.598 31.615 14.175 31.615 31.598-14.183 31.598-31.615 31.598z" fill="#f05ca5"/></g><g id="XMLID_2052_"><path id="XMLID_2053_" d="m473.929 436.717c-17.432 0-31.615-14.175-31.615-31.599 0-17.423 14.183-31.598 31.615-31.598s31.615 14.175 31.615 31.598c0 17.424-14.182 31.599-31.615 31.599z" fill="#eb1d83"/></g></g><g id="XMLID_4239_" fill="none"><path id="XMLID_2050_" d="m270.145 317.104c42.213 0 76.555-34.31 76.555-76.482 0-42.173-34.342-76.482-76.555-76.482z"/><path id="XMLID_2049_" d="m193.589 240.622c0 42.172 34.343 76.482 76.555 76.482v-152.964c-42.212 0-76.555 34.31-76.555 76.482z"/></g><g id="XMLID_2044_"><ellipse id="XMLID_2048_" cx="270.144" cy="240.622" fill="#00ff94" rx="92.363" ry="92.289"/></g><g id="XMLID_2042_"><path id="XMLID_2043_" d="m177.782 240.622c0 50.97 41.352 92.289 92.363 92.289v-184.578c-51.011 0-92.363 41.319-92.363 92.289z" fill="#a6ffb5"/></g></g><g id="XMLID_4130_" fill="#eb1d83"><path id="XMLID_5899_" d="m270.144 414.86c17.432 0 31.615 14.175 31.615 31.598 0 17.424-14.183 31.599-31.615 31.599z"/><path id="XMLID_1088_" d="m270.144 9.897c17.432 0 31.615 14.175 31.615 31.598 0 17.424-14.183 31.599-31.615 31.599z"/></g><path id="XMLID_2045_" d="m270.145 364.097c-59.645 0-108.171-48.492-108.171-108.097s48.525-108.097 108.171-108.097 108.169 48.492 108.169 108.097-48.524 108.097-108.169 108.097zm0-184.579c-42.213 0-76.556 34.31-76.556 76.482s34.343 76.482 76.556 76.482 76.555-34.31 76.555-76.482-34.342-76.482-76.555-76.482z" fill="#005fe1"/><path id="XMLID_2041_" d="m193.589 256c0-42.172 34.343-76.482 76.555-76.482v-31.615c-59.645 0-108.17 48.492-108.17 108.097 0 59.604 48.525 108.096 108.17 108.097v-31.615c-42.212 0-76.555-34.31-76.555-76.482z" fill="#4895ff"/><path id="XMLID_2040_" d="m270.144 297.48c-8.73 0-15.807-7.077-15.807-15.807v-51.344c0-8.73 7.077-15.807 15.807-15.807s15.807 7.077 15.807 15.807v51.344c.001 8.729-7.077 15.807-15.807 15.807z" fill="#005fe1"/><path id="XMLID_2039_" d="m270.144 273.757c-8.73 0-15.807-7.077-15.807-15.807v-3.9c0-8.73 7.077-15.807 15.807-15.807s15.807 7.077 15.807 15.807v3.9c.001 8.73-7.077 15.807-15.807 15.807z" fill="#005fe1"/><g fill="#4895ff"><path id="XMLID_2038_" d="m254.337 230.328v51.344c0 8.73 7.077 15.807 15.807 15.807v-82.959c-8.73 0-15.807 7.078-15.807 15.808z"/><path id="XMLID_2037_" d="m254.337 254.05v3.9c0 8.73 7.077 15.807 15.807 15.807v-35.515c-8.73.001-15.807 7.078-15.807 15.808z"/></g></g></svg>