<?xml version="1.0" encoding="iso-8859-1"?>
<!-- Generator: Adobe Illustrator 18.0.0, SVG Export Plug-In . SVG Version: 6.00 Build 0)  -->
<!DOCTYPE svg PUBLIC "-//W3C//DTD SVG 1.1//EN" "http://www.w3.org/Graphics/SVG/1.1/DTD/svg11.dtd">
<svg version="1.1" id="Capa_1" xmlns="http://www.w3.org/2000/svg" xmlns:xlink="http://www.w3.org/1999/xlink" x="0px" y="0px"
	 viewBox="0 0 496.854 496.854" style="enable-background:new 0 0 496.854 496.854;" xml:space="preserve">
<g>
	<path d="M238.774,192.346c5.338,5.339,14.004,5.339,19.338,0l42.766-42.762c3.926-3.911,5.092-9.8,2.971-14.91
		c-2.109-5.11-7.107-8.445-12.641-8.445h-26.184V20.244c0-9.176-7.434-16.613-16.615-16.613c-9.182,0-16.609,7.438-16.609,16.613
		v105.985h-26.139c-5.529,0-10.508,3.335-12.635,8.445c-2.111,5.11-0.941,10.999,2.967,14.91L238.774,192.346z"/>
	<path d="M131.473,231.064c7.563,0,13.678-6.125,13.678-13.675l0.016-60.465c0-5.534-3.342-10.521-8.453-12.639
		c-5.109-2.115-10.98-0.94-14.91,2.972l-18.506,18.508L28.362,90.813c-6.488-6.489-17.006-6.489-23.494,0
		c-6.49,6.489-6.49,17.004,0,23.492l74.951,74.952L61.34,207.735c-3.91,3.908-5.076,9.79-2.949,14.9
		c2.109,5.12,7.102,8.445,12.637,8.445L131.473,231.064z"/>
	<path d="M491.989,90.79c-6.49-6.49-17.006-6.49-23.496,0l-74.947,74.951l-18.492-18.494c-3.912-3.909-9.783-5.087-14.896-2.961
		c-5.109,2.117-8.451,7.105-8.451,12.632l0.014,60.488c0,7.551,6.119,13.675,13.68,13.675h60.492c5.533,0,10.527-3.335,12.637-8.445
		c2.129-5.11,0.945-10.992-2.967-14.907l-18.508-18.505l74.936-74.942C498.475,107.793,498.475,97.279,491.989,90.79z"/>
	<path d="M358.272,317.209c-0.713,0-1.375,0.089-2.09,0.106c-10.123-53.699-57.172-94.321-113.805-94.321
		c-64.016,0-115.93,51.89-115.93,115.915c0,9.767,1.346,19.184,3.629,28.244c-1.23-0.074-2.383-0.364-3.629-0.364
		c-34.9,0-63.189,28.291-63.189,63.229c0,33.477,25.336,61.025,58.236,63.206h236.777c48.605,0,88.014-39.405,88.014-88.013
		C446.286,356.609,406.877,317.209,358.272,317.209z M208.711,280.619h66.662c9.184,0,16.615,7.439,16.615,16.61
		c0,9.176-7.432,16.614-16.615,16.614h-66.662c-9.18,0-16.611-7.438-16.611-16.614C192.1,288.057,199.532,280.619,208.711,280.619z
		 M208.711,344.699h126.232c9.182,0,16.615,7.438,16.615,16.614c0,9.172-7.434,16.613-16.615,16.613H208.711
		c-9.18,0-16.611-7.441-16.611-16.613C192.1,352.136,199.532,344.699,208.711,344.699z M352.272,442.013H144.616
		c-9.18,0-16.611-7.439-16.611-16.61c0-9.177,7.432-16.614,16.611-16.614h207.656c9.184,0,16.613,7.438,16.613,16.614
		C368.885,434.575,361.456,442.013,352.272,442.013z"/>
</g>
<g>
</g>
<g>
</g>
<g>
</g>
<g>
</g>
<g>
</g>
<g>
</g>
<g>
</g>
<g>
</g>
<g>
</g>
<g>
</g>
<g>
</g>
<g>
</g>
<g>
</g>
<g>
</g>
<g>
</g>
</svg>
